<svg id="Calque_1" data-name="Calque 1" xmlns="http://www.w3.org/2000/svg" viewBox="0 0 1207.05 919.63"><defs><style>.cls-1{fill:none;stroke:#000;stroke-miterlimit:10;stroke-width:2px;}.cls-2{font-size:254px;font-family:AbrilFatface-Regular, Abril Fatface;}.cls-3{letter-spacing:-0.03em;}.cls-4{letter-spacing:-0.07em;}</style></defs><path class="cls-1" d="M205.08,420.34s-103.7-15-147.61-62.2c-36.67-39.46-51.81-67.95-56-112.95,0,0-11.32-71.08,83.38-40.41"/><path class="cls-1" d="M931.13,777.9s-17.54-57-39.8-77.26c0,0,5.77,5.7,22.91,17.66"/><path class="cls-1" d="M900.11,785.39s-3.34-1-6.27-16.95"/><path class="cls-1" d="M952.74,880.54s-19.3-41.18-29-54c-4.15-5.46-15.9-30.56-16.77-36.2"/><path class="cls-1" d="M862.93,707.47s21.33-24.77,42.71-25.75"/><path class="cls-1" d="M861.75,695.39s10.41-12.49,19.72-17.33"/><path class="cls-1" d="M848,612.55s.4-3.1,8.81-4.27"/><path class="cls-1" d="M828.19,610.29a32.49,32.49,0,0,1,26.88-11.72"/><path class="cls-1" d="M847.4,663s11-24.29,33.74-21.21"/><path class="cls-1" d="M840.78,653.47c4.67-10.87,23.38-21,33.46-22"/><path class="cls-1" d="M817.34,613.82s4.07-27.71,37.4-22.15c0,0-.38,30.29,18.1,39.34,3.12,1.52,9.28,2.2,8.22,11,0,0-2.1,15.75,18.59,34.33,18.07,16.24,49,52.34,62.32,77,7.66,14.14,13.38,29.56,20,61.92,2.88,14.11-7-43.42-51.44-76.26-1.17-.87-5-3-5-3s32.5,51.28,36.46,93.32c0,0,5.19,28.33,5.26,88,0,0-44.71-42.43-69.07-103.35-5.5-13.75-18.32-36.3-22.37-79.29,0,0-2.11,76.3,49,139.08,0,0-67.72-58.2-63.65-156.48,0,0,1.86-27.37-.61-34.91-1.8-5.47-6.5-16.43-13.41-19.39,0,0-7-4.22-6.35-9.63C842.25,641.47,839.36,624.41,817.34,613.82Z"/><path class="cls-1" d="M712.89,464.89s61.54,39.33,77.29,64.37"/><path class="cls-1" d="M546.63,488.1s102.43-42.72,152.51-28.19"/><path class="cls-1" d="M555.25,494.28s91.44-38.77,136.51-29.77"/><path class="cls-1" d="M501.5,262.67S492.89,422,526,465c16.26,21.14,66.41,86.67,145.44,16.8,14.55-12.87,54.19-55.62,90-5.87,0,0,27.54,32,42.31,64.93,0,0,21.8,41.59,33.42,51.2"/><path class="cls-1" d="M492.05,258.7s-10.37,143.57,20,202.24c10.94,21.12,67.1,91.08,136.7,51.23,10.56-6,28.36-22.19,37.21-31.74,10.32-11.14,45.42-31.69,67.9-.81,0,0,34.76,43.59,42,59.72"/><path class="cls-1" d="M181.45,277s6.38,181.1,108.35,222.6c14,5.69,76.88,40.89,145.72,31.21,27-3.8,69.78-15.15,102.94-36.5"/><path class="cls-1" d="M175.42,284.72c-.14,43.62,8.91,85.59,26.05,126.8C215,447,237.35,478.49,270,499c0,0,76.58,52.41,165,38.63,54.94-8.56,70-20,109.47-37.9"/><path class="cls-1" d="M176,306.36s-71.13-58.69,30.85-43.72"/><path class="cls-1" d="M183,310.18s111.43,62.21,307.93-28.25"/><path class="cls-1" d="M206.85,262.67s160.24,6.47,232.91-17.53c0,0,79.19-23.75,90.5-15.23,0,0,13.35,8.78-29.45,47"/><path class="cls-1" d="M1.42,245.55s1.84-41.19,77.37-21.46c0,0,60.36,15.94,126.73,16.33,41.31.24,108.84-1.75,165-9.57,0,0,94.67-9.08,142.79-21.47,0,0,48.91-14.86,69.53-22.74,0,0,90.56-32.53,86.56,15.3"/><path class="cls-1" d="M493.25,381.16s-75.36,32.48-136,38.64c-37.58,3.81-142.83.48-142.83.48"/><path class="cls-1" d="M84.78,204.78S164.05,225.29,202,221.71c0,0,100.24-.74,164.36-10.38,0,0,74.56-6.06,138.8-18.23,0,0,51.58-18,81.28-26.79,0,0,36.38-9.86,58.34-10.33,0,0,15.16-.83,23.63,21.44.57,1.5,10.42,26.74-21.08,82.47,0,0-15.65,42.68-80.56,86.55,0,0-43.17,26.47-63.43,31.61"/><path class="cls-1" d="M504.79,192.55s8.43-16.52,22.55-7"/><path class="cls-1" d="M456.06,175.45c10.41-6,20.28,3.7,26.69,20.42,2.3,6-8.18-23.68,14.84-19.7,10.85,1.88,8.2,13.18,6.73,16.83"/><path class="cls-1" d="M319.52,177.49c1.33-3.84,10.22-7.55,15.47-2.41"/><path class="cls-1" d="M313.42,204.8s18.78,17.08,34-1.32"/><path class="cls-1" d="M147,217.68s18.28-30.71,36.62,2.09c0,0-1.66-22.28,14.94-22.09"/><path class="cls-1" d="M275.4,23S311,2.72,326.35,2.67c0,0,49.24-10.4,86.82,20.71,0,0,29.31,12.29,52.34,78.49,0,0,27.44,61.85,36.62,76"/><path class="cls-1" d="M146.3,217.75s-2.13-104.71,11-134.63c0,0,10-47.28,64.62-55.29,0,0,12.1-4.56,42.34-4.44,0,0,29.11-.86,46.47-3.26"/><path class="cls-1" d="M367.33,211.15s-43.47-46.78-3.66-83.56c14.69-13.58,54.2-22.31,73.27,17.38,6,12.46,15.12,38-5.23,58.77Z"/><path class="cls-1" d="M212.32,221.51s-40.06-44.64,3.37-87.93c15.85-15.8,54.09-26.33,78.56-2.93,13.72,13.13,42.89,48.38,11,86.86Z"/><path class="cls-1" d="M354.83,212.86s-41.78-43.43-9.18-85.7c16.25-21.07,66.18-46.46,99.65,3.4,10,14.86,20.64,35.6.7,71.6Z"/><path class="cls-1" d="M228,221.06s-37-31.33-10.31-70.15c11.6-16.88,55.16-36.14,81.91,2,9.44,13.46,16.41,44.9-10.35,65Z"/><path class="cls-1" d="M701.57,469.43s65,38.85,86.13,71.62c0,0,29.33,44.51,41.21,54.34"/><text class="cls-2" transform="translate(308.79 448.49)"><tspan class="cls-3">B</tspan><tspan x="159.77" y="0">AK</tspan><tspan class="cls-4" x="522.47" y="0">K</tspan><tspan x="691.13" y="0">O</tspan></text></svg>